<svg viewBox="0 0 24 24" xmlns="http://www.w3.org/2000/svg">
  <path d="M6.5 11l1.5-5h1l1.5 5h-1l-.3-1h-1.4l-.3 1h-1zm1.5-2h.8l-.4-1.5-.4 1.5z" fill="#FF9900"/>
  <path d="M11 6h1l.8 3.5.8-3.5h1l-1.3 5h-1L11 6z" fill="#FF9900"/>
  <path d="M15 8.5c0-.8.7-1.5 1.5-1.5.4 0 .7.1 1 .3l-.3.7c-.2-.1-.4-.2-.6-.2-.4 0-.6.3-.6.7 0 .4.2.7.6.7.2 0 .4-.1.6-.2l.3.7c-.3.2-.6.3-1 .3-.8 0-1.5-.7-1.5-1.5z" fill="#FF9900"/>
  <path d="M4 15c2.5 1.5 5.5 2.5 8.5 2.5s6-.5 8.5-2" stroke="#FF9900" stroke-width="1.5" fill="none"/>
  <path d="M18.5 14l1-2.5 1.5 1-2.5 1.5z" fill="#FF9900"/>
</svg>
