<svg viewBox="0 0 24 24" xmlns="http://www.w3.org/2000/svg">
  <path d="M8 17s-1 .5 1 .7c2 .2 3.5.2 6-.3 0 0 .5.4 1.3.7-4.5 2-10.5-.1-8.3-.4z" fill="#ED8B00"/>
  <path d="M7.5 14.5s-1 .8.8 1c2.5.2 4.3.2 7.5-.4 0 0 .4.4 1 .6-5.5 1.6-11.5.1-9.3-.6z" fill="#ED8B00"/>
  <path d="M13 11c1.2 1.4-.3 2.6-.3 2.6s3-1.5 1.6-3.4c-1.3-1.8-2.3-2.6 3-5.6 0 0-8 2-4.3 6.4z" fill="#ED8B00"/>
  <path d="M17.5 18.5s.7.6-.8 1c-2.8.8-11.5 1-14 0-.9-.4.8-.9 1.3-.9.5-.1.8-.1.8-.1-1-.7-6 1.3-2.5 1.9 9.5 1.6 17.3-.7 15.2-1.9z" fill="#ED8B00"/>
  <path d="M8.5 12.5s-4 1-1.5 1.3c1.1.1 3.3.1 5.3-.1 1.7-.1 3.3-.4 3.3-.4s-.6.2-1 .5c-3.8 1-11 .5-9-1 2-1.3 2.9-.3 2.9-.3z" fill="#ED8B00"/>
</svg>
