<svg width="600" height="300" viewBox="0 0 600 300" xmlns="http://www.w3.org/2000/svg">
  <defs>
    <linearGradient id="bg4" x1="0%" y1="0%" x2="100%" y2="100%">
      <stop offset="0%" style="stop-color:#1a1a2e"/>
      <stop offset="100%" style="stop-color:#16213e"/>
    </linearGradient>
  </defs>
  <rect width="600" height="300" fill="url(#bg4)"/>
  <text x="300" y="60" text-anchor="middle" fill="#E10098" font-family="Arial, sans-serif" font-size="28" font-weight="bold">Brain Mapping EEG</text>
  <text x="300" y="90" text-anchor="middle" fill="#61DAFB" font-family="Arial, sans-serif" font-size="14">ML Classification System</text>
  <!-- Brain outline -->
  <ellipse cx="300" cy="180" rx="80" ry="70" fill="none" stroke="#E10098" stroke-width="2" opacity="0.6"/>
  <!-- EEG waves -->
  <path d="M150 180 Q170 150 190 180 Q210 210 230 180 Q250 150 270 180" stroke="#2c9ffe" stroke-width="2" fill="none"/>
  <path d="M330 180 Q350 150 370 180 Q390 210 410 180 Q430 150 450 180" stroke="#2c9ffe" stroke-width="2" fill="none"/>
  <!-- Neural nodes -->
  <circle cx="260" cy="160" r="8" fill="#10A37F"/>
  <circle cx="300" cy="140" r="8" fill="#10A37F"/>
  <circle cx="340" cy="160" r="8" fill="#10A37F"/>
  <circle cx="280" cy="200" r="8" fill="#10A37F"/>
  <circle cx="320" cy="200" r="8" fill="#10A37F"/>
  <line x1="260" y1="160" x2="300" y2="140" stroke="#10A37F" stroke-width="1" opacity="0.5"/>
  <line x1="300" y1="140" x2="340" y2="160" stroke="#10A37F" stroke-width="1" opacity="0.5"/>
  <line x1="280" y1="200" x2="320" y2="200" stroke="#10A37F" stroke-width="1" opacity="0.5"/>
</svg>
