<svg width="600" height="300" viewBox="0 0 600 300" xmlns="http://www.w3.org/2000/svg">
  <defs>
    <linearGradient id="bg13" x1="0%" y1="0%" x2="100%" y2="100%">
      <stop offset="0%" style="stop-color:#1a1a2e"/>
      <stop offset="100%" style="stop-color:#2d1b4e"/>
    </linearGradient>
  </defs>
  <rect width="600" height="300" fill="url(#bg13)"/>
  <text x="300" y="60" text-anchor="middle" fill="#E10098" font-family="Arial, sans-serif" font-size="36" font-weight="bold">Creative Anthro</text>
  <text x="300" y="90" text-anchor="middle" fill="#3178C6" font-family="Arial, sans-serif" font-size="14">Interactive Anthropological Design</text>
  <!-- Abstract human figures -->
  <circle cx="200" cy="160" r="25" fill="none" stroke="#E10098" stroke-width="2"/>
  <line x1="200" y1="185" x2="200" y2="240" stroke="#E10098" stroke-width="2"/>
  <line x1="200" y1="200" x2="170" y2="220" stroke="#E10098" stroke-width="2"/>
  <line x1="200" y1="200" x2="230" y2="220" stroke="#E10098" stroke-width="2"/>
  <circle cx="300" cy="160" r="25" fill="none" stroke="#2c9ffe" stroke-width="2"/>
  <line x1="300" y1="185" x2="300" y2="240" stroke="#2c9ffe" stroke-width="2"/>
  <line x1="300" y1="200" x2="270" y2="220" stroke="#2c9ffe" stroke-width="2"/>
  <line x1="300" y1="200" x2="330" y2="220" stroke="#2c9ffe" stroke-width="2"/>
  <circle cx="400" cy="160" r="25" fill="none" stroke="#10A37F" stroke-width="2"/>
  <line x1="400" y1="185" x2="400" y2="240" stroke="#10A37F" stroke-width="2"/>
  <line x1="400" y1="200" x2="370" y2="220" stroke="#10A37F" stroke-width="2"/>
  <line x1="400" y1="200" x2="430" y2="220" stroke="#10A37F" stroke-width="2"/>
  <!-- Connection lines -->
  <path d="M225 160 Q262 130 275 160" stroke="#888" stroke-width="1" fill="none" stroke-dasharray="4"/>
  <path d="M325 160 Q362 130 375 160" stroke="#888" stroke-width="1" fill="none" stroke-dasharray="4"/>
</svg>
