<svg width="600" height="300" viewBox="0 0 600 300" xmlns="http://www.w3.org/2000/svg">
  <defs>
    <linearGradient id="bg8" x1="0%" y1="0%" x2="100%" y2="100%">
      <stop offset="0%" style="stop-color:#0f0f23"/>
      <stop offset="100%" style="stop-color:#1a1a2e"/>
    </linearGradient>
  </defs>
  <rect width="600" height="300" fill="url(#bg8)"/>
  <text x="300" y="60" text-anchor="middle" fill="#fff" font-family="Arial, sans-serif" font-size="28" font-weight="bold">Jeff Lei Lab</text>
  <text x="300" y="90" text-anchor="middle" fill="#3178C6" font-family="Arial, sans-serif" font-size="14">Academic Research Lab Website</text>
  <!-- Browser mockup -->
  <rect x="120" y="110" width="360" height="170" rx="8" fill="#1e1e1e" stroke="#3c3c3c"/>
  <rect x="120" y="110" width="360" height="25" rx="8" fill="#323233"/>
  <circle cx="135" cy="122" r="5" fill="#ff5f56"/>
  <circle cx="150" cy="122" r="5" fill="#ffbd2e"/>
  <circle cx="165" cy="122" r="5" fill="#27ca40"/>
  <!-- Navigation -->
  <rect x="130" y="145" width="40" height="12" rx="2" fill="#2c9ffe" opacity="0.8"/>
  <rect x="180" y="145" width="50" height="12" rx="2" fill="#666"/>
  <rect x="240" y="145" width="60" height="12" rx="2" fill="#666"/>
  <rect x="310" y="145" width="40" height="12" rx="2" fill="#666"/>
  <!-- Content -->
  <rect x="130" y="170" width="150" height="80" rx="4" fill="#252526"/>
  <rect x="290" y="170" width="180" height="35" rx="4" fill="#252526"/>
  <rect x="290" y="215" width="180" height="35" rx="4" fill="#252526"/>
</svg>
