<svg width="600" height="300" viewBox="0 0 600 300" xmlns="http://www.w3.org/2000/svg">
  <defs>
    <linearGradient id="bg15" x1="0%" y1="0%" x2="100%" y2="100%">
      <stop offset="0%" style="stop-color:#1a1a2e"/>
      <stop offset="100%" style="stop-color:#16213e"/>
    </linearGradient>
  </defs>
  <rect width="600" height="300" fill="url(#bg15)"/>
  <text x="300" y="55" text-anchor="middle" fill="#FF6B6B" font-family="Arial, sans-serif" font-size="36" font-weight="bold">NiftyDiran UI</text>
  <text x="300" y="85" text-anchor="middle" fill="#4ECDC4" font-family="Arial, sans-serif" font-size="14">Component Library &amp; Design System</text>
  <!-- UI components -->
  <rect x="130" y="110" width="100" height="40" rx="8" fill="#4ECDC4"/>
  <text x="180" y="135" text-anchor="middle" fill="white" font-size="14">Button</text>
  <rect x="250" y="110" width="100" height="40" rx="20" fill="none" stroke="#FF6B6B" stroke-width="2"/>
  <text x="300" y="135" text-anchor="middle" fill="#FF6B6B" font-size="14">Outlined</text>
  <rect x="370" y="110" width="100" height="40" rx="8" fill="#45B7D1"/>
  <text x="420" y="135" text-anchor="middle" fill="white" font-size="14">Primary</text>
  <!-- Card component -->
  <rect x="130" y="170" width="150" height="100" rx="10" fill="#2c3e50"/>
  <rect x="145" y="185" width="120" height="10" rx="2" fill="#4ECDC4"/>
  <rect x="145" y="205" width="100" height="6" rx="2" fill="#666"/>
  <rect x="145" y="220" width="80" height="6" rx="2" fill="#666"/>
  <rect x="145" y="245" width="50" height="15" rx="4" fill="#FF6B6B"/>
  <!-- Input -->
  <rect x="310" y="170" width="160" height="35" rx="6" fill="#1e1e1e" stroke="#4ECDC4" stroke-width="2"/>
  <text x="330" y="193" fill="#888" font-size="12">Enter text...</text>
</svg>
