<svg width="600" height="300" viewBox="0 0 600 300" xmlns="http://www.w3.org/2000/svg">
  <defs>
    <linearGradient id="bg6" x1="0%" y1="0%" x2="100%" y2="100%">
      <stop offset="0%" style="stop-color:#1e1e1e"/>
      <stop offset="100%" style="stop-color:#252526"/>
    </linearGradient>
  </defs>
  <rect width="600" height="300" fill="url(#bg6)"/>
  <!-- VSCode window -->
  <rect x="100" y="50" width="400" height="200" rx="8" fill="#1e1e1e" stroke="#3c3c3c" stroke-width="2"/>
  <!-- Title bar -->
  <rect x="100" y="50" width="400" height="30" rx="8" fill="#323233"/>
  <circle cx="120" cy="65" r="6" fill="#ff5f56"/>
  <circle cx="140" cy="65" r="6" fill="#ffbd2e"/>
  <circle cx="160" cy="65" r="6" fill="#27ca40"/>
  <text x="300" y="70" text-anchor="middle" fill="#888" font-size="12">Portfolio - VSCode</text>
  <!-- Sidebar -->
  <rect x="100" y="80" width="50" height="170" fill="#252526"/>
  <!-- Code area -->
  <rect x="160" y="100" width="80" height="8" rx="2" fill="#569cd6" opacity="0.8"/>
  <rect x="250" y="100" width="60" height="8" rx="2" fill="#ce9178" opacity="0.8"/>
  <rect x="160" y="120" width="120" height="8" rx="2" fill="#4ec9b0" opacity="0.8"/>
  <rect x="290" y="120" width="40" height="8" rx="2" fill="#dcdcaa" opacity="0.8"/>
  <rect x="160" y="140" width="60" height="8" rx="2" fill="#c586c0" opacity="0.8"/>
  <rect x="230" y="140" width="100" height="8" rx="2" fill="#9cdcfe" opacity="0.8"/>
  <text x="300" y="200" text-anchor="middle" fill="#2c9ffe" font-size="24" font-weight="bold">&lt;/&gt;</text>
</svg>
