<svg width="600" height="300" viewBox="0 0 600 300" xmlns="http://www.w3.org/2000/svg">
  <defs>
    <linearGradient id="bg10" x1="0%" y1="0%" x2="100%" y2="100%">
      <stop offset="0%" style="stop-color:#1a1a2e"/>
      <stop offset="100%" style="stop-color:#16213e"/>
    </linearGradient>
  </defs>
  <rect width="600" height="300" fill="url(#bg10)"/>
  <text x="300" y="60" text-anchor="middle" fill="#E10098" font-family="Arial, sans-serif" font-size="40" font-weight="bold">Voicelytics</text>
  <text x="300" y="90" text-anchor="middle" fill="#3178C6" font-family="Arial, sans-serif" font-size="16">Voice Analytics &amp; Processing</text>
  <!-- Sound wave visualization -->
  <path d="M100 180 Q120 140 140 180 Q160 220 180 180 Q200 140 220 180 Q240 220 260 180 Q280 140 300 180 Q320 220 340 180 Q360 140 380 180 Q400 220 420 180 Q440 140 460 180 Q480 220 500 180" stroke="#2c9ffe" stroke-width="3" fill="none"/>
  <!-- Microphone icon -->
  <rect x="270" y="200" width="60" height="80" rx="30" fill="none" stroke="#E10098" stroke-width="3"/>
  <path d="M260 250 Q260 280 300 290 Q340 280 340 250" stroke="#E10098" stroke-width="3" fill="none"/>
  <line x1="300" y1="290" x2="300" y2="300" stroke="#E10098" stroke-width="3"/>
</svg>
