<svg xmlns="http://www.w3.org/2000/svg" viewBox="0 0 100 100">
  <rect width="100" height="100" fill="#F7DF1E"/>
  <path d="M26.5 77.9l6-3.6c1.2 2.1 2.2 3.8 4.8 3.8 2.5 0 4-1 4-4.7V47.5h7.4v26.1c0 7.8-4.5 11.3-11.2 11.3-6 0-9.5-3.1-11-6.8m26.2-1.1l6-3.5c1.6 2.6 3.7 4.5 7.4 4.5 3.1 0 5.1-1.5 5.1-3.7 0-2.6-2-3.5-5.5-5l-1.9-.8c-5.4-2.3-9-5.2-9-11.3 0-5.6 4.3-9.9 11-9.9 4.8 0 8.2 1.7 10.7 6l-5.8 3.7c-1.3-2.3-2.7-3.2-4.8-3.2-2.2 0-3.6 1.4-3.6 3.2 0 2.2 1.4 3.1 4.6 4.5l1.9.8c6.4 2.7 10 5.5 10 11.7 0 6.7-5.3 10.4-12.4 10.4-6.9 0-11.4-3.3-13.6-7.6" fill="#000"/>
</svg>
