<svg xmlns="http://www.w3.org/2000/svg" viewBox="0 0 100 100">
  <mask id="mask" fill="#fff">
    <path d="M70.9 20.1c-1.1-.5-2.4-.3-3.4.4L32.5 50l-15-11.4c-.8-.6-1.9-.7-2.8-.2l-5.3 2.6c-1.1.5-1.8 1.6-1.8 2.8v12.4c0 1.2.7 2.3 1.8 2.8l5.3 2.6c.9.5 2 .4 2.8-.2l15-11.4 35 29.5c1 .7 2.3.9 3.4.4l19.1-9.3c1.5-.7 2.4-2.2 2.4-3.9V33.3c0-1.7-.9-3.2-2.4-3.9L70.9 20.1z"/>
  </mask>
  <g mask="url(#mask)">
    <path d="M90.4 29.4L71.3 20.1c-1.1-.5-2.4-.3-3.4.4L32.5 50l-15-11.4c-.8-.6-1.9-.7-2.8-.2l-5.3 2.6c-1.1.5-1.8 1.6-1.8 2.8v12.4c0 1.2.7 2.3 1.8 2.8l5.3 2.6c.9.5 2 .4 2.8-.2l15-11.4 35 29.5c1 .7 2.3.9 3.4.4l19.1-9.3c1.5-.7 2.4-2.2 2.4-3.9V33.3c0-1.7-.9-3.2-2.4-3.9z" fill="#0065A9"/>
    <path d="M90.4 70.6L71.3 79.9c-1.1.5-2.4.3-3.4-.4L7.6 43v-7.2l9.8-4.8 15 11.4 35-29.5c1-.7 2.3-.9 3.4-.4l19.6 9.5v48.6z" fill="#007ACC"/>
    <path d="M71.3 79.9c-1.1.5-2.4.3-3.4-.4L32.5 50l-15 11.4c-.8.6-1.9.7-2.8.2l-5.3-2.6c-1.1-.5-1.8-1.6-1.8-2.8V43.8c0-1.2.7-2.3 1.8-2.8l5.3-2.6c.9-.5 2-.4 2.8.2l15 11.4 35-29.5c1-.7 2.3-.9 3.4-.4l19.1 9.3c1.5.7 2.4 2.2 2.4 3.9v33.4c0 1.7-.9 3.2-2.4 3.9l-19.5 9.3z" fill="#1F9CF0"/>
  </g>
</svg>
